<?xml version="1.0" standalone="no"?>
<!DOCTYPE svg PUBLIC "-//W3C//DTD SVG 20010904//EN"
 "http://www.w3.org/TR/2001/REC-SVG-20010904/DTD/svg10.dtd">
<svg version="1.0" xmlns="http://www.w3.org/2000/svg"
 width="795.000000pt" height="404.000000pt" viewBox="0 0 795.000000 404.000000"
 preserveAspectRatio="xMidYMid meet">

<g transform="translate(0.000000,404.000000) scale(0.100000,-0.100000)"
fill="#000000" stroke="none">
<path d="M6614 3896 c-140 -44 -283 -186 -318 -314 -22 -81 -64 -156 -111
-201 -35 -33 -54 -42 -150 -66 -187 -47 -527 -161 -789 -264 -158 -62 -217
-74 -366 -74 -125 0 -142 4 -355 78 -71 25 -184 63 -250 84 -66 22 -239 81
-385 130 -146 50 -327 112 -403 137 -101 34 -152 57 -186 84 -58 46 -96 66
-141 75 -38 7 -986 -26 -1445 -50 -154 -8 -371 -18 -483 -21 -225 -8 -250 -14
-289 -73 -22 -33 -23 -41 -23 -281 0 -152 4 -259 11 -278 14 -40 60 -68 124
-76 436 -51 563 -68 625 -88 19 -5 85 -34 145 -63 61 -29 135 -63 165 -75 30
-12 88 -38 128 -56 40 -19 75 -34 78 -34 2 0 48 -20 102 -44 53 -24 151 -68
217 -96 74 -32 134 -66 156 -87 43 -41 116 -183 135 -262 22 -92 37 -334 30
-491 -9 -198 -43 -568 -61 -660 -44 -228 -46 -401 -6 -484 55 -113 120 -156
266 -179 190 -29 371 -42 430 -30 77 17 154 77 194 153 35 65 54 174 86 480 9
80 22 183 30 230 14 84 41 385 48 530 3 76 -34 566 -52 695 -6 39 -11 87 -11
108 0 38 1 39 73 71 88 40 172 56 301 56 133 0 213 -14 411 -72 249 -73 291
-80 430 -75 95 4 138 11 205 32 47 15 193 58 325 95 333 94 590 179 710 234
17 8 57 24 90 37 94 35 214 97 290 150 86 59 152 127 239 244 99 135 128 173
163 216 17 22 37 56 45 77 18 50 15 196 -5 250 -37 98 -154 229 -225 250 -51
15 -146 14 -198 -2z m159 -315 c22 -25 37 -53 42 -80 6 -36 3 -46 -19 -74 -14
-18 -45 -59 -68 -92 -23 -33 -58 -78 -78 -101 -20 -22 -41 -47 -46 -55 -16
-27 -129 -115 -195 -151 -74 -42 -211 -97 -354 -144 -55 -18 -125 -42 -155
-53 -50 -18 -133 -44 -465 -146 -101 -31 -229 -65 -380 -102 -91 -23 -175 -12
-393 51 -264 77 -343 90 -542 90 -180 1 -284 -16 -371 -59 -54 -28 -51 -30
-100 92 -17 43 -37 89 -45 103 -48 87 -147 343 -134 348 5 2 32 -9 61 -24 29
-14 83 -38 118 -51 36 -13 77 -31 91 -39 23 -13 82 -38 260 -114 36 -15 84
-37 107 -48 23 -12 71 -33 108 -47 36 -13 78 -31 93 -39 15 -9 61 -30 102 -47
41 -17 111 -47 155 -66 173 -75 330 -90 518 -52 111 22 266 66 282 79 42 35
726 261 878 290 53 11 64 18 141 93 90 89 143 173 172 272 22 80 56 127 118
169 28 19 54 35 57 36 4 0 22 -17 42 -39z m-3604 -333 c34 -46 71 -128 71
-159 0 -5 13 -38 29 -72 15 -34 36 -87 46 -117 10 -30 26 -71 36 -90 10 -19
29 -62 43 -95 13 -33 38 -89 54 -125 43 -94 49 -121 62 -260 6 -69 13 -132 15
-140 3 -8 16 -145 30 -305 23 -260 25 -306 15 -440 -16 -234 -31 -374 -45
-445 -7 -36 -16 -96 -19 -135 -8 -84 -33 -294 -48 -389 -8 -51 -17 -76 -35
-94 -24 -23 -27 -24 -121 -18 -115 8 -274 26 -284 32 -21 13 -18 104 11 290
17 110 37 271 46 359 8 88 19 201 25 252 25 230 7 573 -40 757 -32 126 -153
339 -218 384 -41 29 -157 83 -422 197 -41 18 -101 44 -133 59 -32 14 -60 26
-63 26 -6 0 -191 82 -279 125 -124 60 -299 102 -531 128 l-209 23 -3 111 -3
111 93 6 c51 3 230 10 398 16 168 6 445 17 615 26 281 13 637 29 772 32 52 2
53 2 92 -50z"/>
</g>
</svg>
